<mxfile host="app.diagrams.net" agent="Mozilla/5.0 (Windows NT 10.0; Win64; x64) AppleWebKit/537.36 (KHTML, like Gecko) Chrome/128.0.0.0 Safari/537.36" version="24.7.12">
  <diagram id="R2lEEEUBdFMjLlhIrx00" name="Page-1">
    <mxGraphModel dx="3134" dy="1846" grid="1" gridSize="10" guides="1" tooltips="1" connect="1" arrows="1" fold="1" page="1" pageScale="1" pageWidth="850" pageHeight="1100" math="0" shadow="0" extFonts="Permanent Marker^https://fonts.googleapis.com/css?family=Permanent+Marker">
      <root>
        <mxCell id="0" />
        <mxCell id="1" parent="0" />
        <mxCell id="ySv0NDXNb3eUwj8sAtVx-1" value="电影主信息" style="whiteSpace=wrap;html=1;align=center;" vertex="1" parent="1">
          <mxGeometry x="-890" y="-510" width="100" height="40" as="geometry" />
        </mxCell>
        <mxCell id="ySv0NDXNb3eUwj8sAtVx-2" value="豆瓣编号" style="ellipse;whiteSpace=wrap;html=1;align=center;" vertex="1" parent="1">
          <mxGeometry x="-700" y="-600" width="100" height="40" as="geometry" />
        </mxCell>
        <mxCell id="ySv0NDXNb3eUwj8sAtVx-3" value="IMDB编号" style="ellipse;whiteSpace=wrap;html=1;align=center;" vertex="1" parent="1">
          <mxGeometry x="-680" y="-530" width="100" height="40" as="geometry" />
        </mxCell>
        <mxCell id="ySv0NDXNb3eUwj8sAtVx-5" value="TMDB编号" style="ellipse;whiteSpace=wrap;html=1;align=center;" vertex="1" parent="1">
          <mxGeometry x="-790" y="-640" width="100" height="40" as="geometry" />
        </mxCell>
        <mxCell id="ySv0NDXNb3eUwj8sAtVx-6" value="电影名称" style="ellipse;whiteSpace=wrap;html=1;align=center;" vertex="1" parent="1">
          <mxGeometry x="-1050" y="-530" width="100" height="40" as="geometry" />
        </mxCell>
        <mxCell id="ySv0NDXNb3eUwj8sAtVx-7" value="" style="endArrow=none;html=1;rounded=0;" edge="1" parent="1" source="ySv0NDXNb3eUwj8sAtVx-1" target="ySv0NDXNb3eUwj8sAtVx-2">
          <mxGeometry relative="1" as="geometry">
            <mxPoint x="-830" y="-510" as="sourcePoint" />
            <mxPoint x="-670" y="-510" as="targetPoint" />
          </mxGeometry>
        </mxCell>
        <mxCell id="ySv0NDXNb3eUwj8sAtVx-9" value="" style="endArrow=none;html=1;rounded=0;exitX=1;exitY=0.5;exitDx=0;exitDy=0;entryX=0;entryY=0.5;entryDx=0;entryDy=0;" edge="1" parent="1" source="ySv0NDXNb3eUwj8sAtVx-1" target="ySv0NDXNb3eUwj8sAtVx-3">
          <mxGeometry relative="1" as="geometry">
            <mxPoint x="-750" y="-480.48" as="sourcePoint" />
            <mxPoint x="-700" y="-480.48" as="targetPoint" />
          </mxGeometry>
        </mxCell>
        <mxCell id="ySv0NDXNb3eUwj8sAtVx-12" value="" style="endArrow=none;html=1;rounded=0;exitX=1;exitY=0.5;exitDx=0;exitDy=0;entryX=0;entryY=0.5;entryDx=0;entryDy=0;" edge="1" parent="1" source="ySv0NDXNb3eUwj8sAtVx-6" target="ySv0NDXNb3eUwj8sAtVx-1">
          <mxGeometry relative="1" as="geometry">
            <mxPoint x="-900" y="-480" as="sourcePoint" />
            <mxPoint x="-860" y="-480" as="targetPoint" />
          </mxGeometry>
        </mxCell>
        <mxCell id="ySv0NDXNb3eUwj8sAtVx-18" value="电影语言" style="ellipse;whiteSpace=wrap;html=1;align=center;" vertex="1" parent="1">
          <mxGeometry x="-810" y="-400" width="100" height="40" as="geometry" />
        </mxCell>
        <mxCell id="ySv0NDXNb3eUwj8sAtVx-19" value="电影类型&lt;span style=&quot;color: rgba(0, 0, 0, 0); font-family: monospace; font-size: 0px; text-align: start; text-wrap: nowrap;&quot;&gt;%3CmxGraphModel%3E%3Croot%3E%3CmxCell%20id%3D%220%22%2F%3E%3CmxCell%20id%3D%221%22%20parent%3D%220%22%2F%3E%3CmxCell%20id%3D%222%22%20value%3D%22%E7%94%B5%E5%BD%B1%E8%AF%AD%E8%A8%80%22%20style%3D%22ellipse%3BwhiteSpace%3Dwrap%3Bhtml%3D1%3Balign%3Dcenter%3B%22%20vertex%3D%221%22%20parent%3D%221%22%3E%3CmxGeometry%20x%3D%22-680%22%20y%3D%22-630%22%20width%3D%22100%22%20height%3D%2240%22%20as%3D%22geometry%22%2F%3E%3C%2FmxCell%3E%3C%2Froot%3E%3C%2FmxGraphModel%3E&lt;/span&gt;" style="ellipse;whiteSpace=wrap;html=1;align=center;" vertex="1" parent="1">
          <mxGeometry x="-940" y="-400" width="100" height="40" as="geometry" />
        </mxCell>
        <mxCell id="ySv0NDXNb3eUwj8sAtVx-20" value="电影简介" style="ellipse;whiteSpace=wrap;html=1;align=center;" vertex="1" parent="1">
          <mxGeometry x="-1010" y="-440" width="100" height="40" as="geometry" />
        </mxCell>
        <mxCell id="ySv0NDXNb3eUwj8sAtVx-21" value="电影片长" style="ellipse;whiteSpace=wrap;html=1;align=center;" vertex="1" parent="1">
          <mxGeometry x="-700" y="-470" width="100" height="40" as="geometry" />
        </mxCell>
        <mxCell id="ySv0NDXNb3eUwj8sAtVx-22" value="上映日期" style="ellipse;whiteSpace=wrap;html=1;align=center;" vertex="1" parent="1">
          <mxGeometry x="-980" y="-630" width="100" height="40" as="geometry" />
        </mxCell>
        <mxCell id="ySv0NDXNb3eUwj8sAtVx-23" value="制作国家及地区" style="ellipse;whiteSpace=wrap;html=1;align=center;" vertex="1" parent="1">
          <mxGeometry x="-1040" y="-590" width="100" height="40" as="geometry" />
        </mxCell>
        <mxCell id="ySv0NDXNb3eUwj8sAtVx-24" value="编号" style="ellipse;whiteSpace=wrap;html=1;align=center;" vertex="1" parent="1">
          <mxGeometry x="-890" y="-660" width="100" height="40" as="geometry" />
        </mxCell>
        <mxCell id="ySv0NDXNb3eUwj8sAtVx-26" value="电影原始标题" style="ellipse;whiteSpace=wrap;html=1;align=center;" vertex="1" parent="1">
          <mxGeometry x="-1060" y="-480" width="100" height="40" as="geometry" />
        </mxCell>
        <mxCell id="ySv0NDXNb3eUwj8sAtVx-27" value="" style="endArrow=none;html=1;rounded=0;entryX=0;entryY=0;entryDx=0;entryDy=0;" edge="1" parent="1" source="ySv0NDXNb3eUwj8sAtVx-23" target="ySv0NDXNb3eUwj8sAtVx-1">
          <mxGeometry relative="1" as="geometry">
            <mxPoint x="-1040" y="-540" as="sourcePoint" />
            <mxPoint x="-880" y="-540" as="targetPoint" />
          </mxGeometry>
        </mxCell>
        <mxCell id="ySv0NDXNb3eUwj8sAtVx-30" value="" style="endArrow=none;html=1;rounded=0;" edge="1" parent="1" source="ySv0NDXNb3eUwj8sAtVx-26">
          <mxGeometry relative="1" as="geometry">
            <mxPoint x="-963.8461538461559" y="-470.0023076923074" as="sourcePoint" />
            <mxPoint x="-890" y="-480" as="targetPoint" />
          </mxGeometry>
        </mxCell>
        <mxCell id="ySv0NDXNb3eUwj8sAtVx-31" value="" style="endArrow=none;html=1;rounded=0;" edge="1" parent="1" source="ySv0NDXNb3eUwj8sAtVx-1" target="ySv0NDXNb3eUwj8sAtVx-22">
          <mxGeometry relative="1" as="geometry">
            <mxPoint x="-760" y="-540" as="sourcePoint" />
            <mxPoint x="-600" y="-540" as="targetPoint" />
          </mxGeometry>
        </mxCell>
        <mxCell id="ySv0NDXNb3eUwj8sAtVx-32" value="" style="endArrow=none;html=1;rounded=0;entryX=0.403;entryY=-0.022;entryDx=0;entryDy=0;entryPerimeter=0;" edge="1" parent="1" source="ySv0NDXNb3eUwj8sAtVx-1">
          <mxGeometry relative="1" as="geometry">
            <mxPoint x="-829.5" y="-470.00000000000006" as="sourcePoint" />
            <mxPoint x="-950.5" y="-439.71999999999986" as="targetPoint" />
          </mxGeometry>
        </mxCell>
        <mxCell id="ySv0NDXNb3eUwj8sAtVx-33" value="" style="endArrow=none;html=1;rounded=0;entryX=0.22;entryY=0.025;entryDx=0;entryDy=0;exitX=0.75;exitY=1;exitDx=0;exitDy=0;entryPerimeter=0;" edge="1" parent="1" source="ySv0NDXNb3eUwj8sAtVx-1" target="ySv0NDXNb3eUwj8sAtVx-18">
          <mxGeometry relative="1" as="geometry">
            <mxPoint x="-780" y="-480" as="sourcePoint" />
            <mxPoint x="-620" y="-480" as="targetPoint" />
          </mxGeometry>
        </mxCell>
        <mxCell id="ySv0NDXNb3eUwj8sAtVx-34" value="" style="endArrow=none;html=1;rounded=0;exitX=0.36;exitY=0.975;exitDx=0;exitDy=0;exitPerimeter=0;" edge="1" parent="1" source="ySv0NDXNb3eUwj8sAtVx-1" target="ySv0NDXNb3eUwj8sAtVx-19">
          <mxGeometry relative="1" as="geometry">
            <mxPoint x="-800" y="-450" as="sourcePoint" />
            <mxPoint x="-640" y="-450" as="targetPoint" />
          </mxGeometry>
        </mxCell>
        <mxCell id="ySv0NDXNb3eUwj8sAtVx-35" value="" style="endArrow=none;html=1;rounded=0;exitX=0.99;exitY=0.6;exitDx=0;exitDy=0;exitPerimeter=0;" edge="1" parent="1" source="ySv0NDXNb3eUwj8sAtVx-1" target="ySv0NDXNb3eUwj8sAtVx-21">
          <mxGeometry relative="1" as="geometry">
            <mxPoint x="-780" y="-490" as="sourcePoint" />
            <mxPoint x="-620" y="-490" as="targetPoint" />
          </mxGeometry>
        </mxCell>
        <mxCell id="ySv0NDXNb3eUwj8sAtVx-37" value="" style="endArrow=none;html=1;rounded=0;exitX=0.558;exitY=1.038;exitDx=0;exitDy=0;exitPerimeter=0;entryX=0.5;entryY=0;entryDx=0;entryDy=0;" edge="1" parent="1" source="ySv0NDXNb3eUwj8sAtVx-24" target="ySv0NDXNb3eUwj8sAtVx-1">
          <mxGeometry relative="1" as="geometry">
            <mxPoint x="-820" y="-590" as="sourcePoint" />
            <mxPoint x="-660" y="-590" as="targetPoint" />
          </mxGeometry>
        </mxCell>
        <mxCell id="ySv0NDXNb3eUwj8sAtVx-38" value="" style="endArrow=none;html=1;rounded=0;entryX=0.396;entryY=1.012;entryDx=0;entryDy=0;entryPerimeter=0;" edge="1" parent="1" source="ySv0NDXNb3eUwj8sAtVx-1" target="ySv0NDXNb3eUwj8sAtVx-5">
          <mxGeometry relative="1" as="geometry">
            <mxPoint x="-820" y="-540" as="sourcePoint" />
            <mxPoint x="-660" y="-540" as="targetPoint" />
          </mxGeometry>
        </mxCell>
        <mxCell id="ySv0NDXNb3eUwj8sAtVx-43" value="人物信息" style="whiteSpace=wrap;html=1;align=center;" vertex="1" parent="1">
          <mxGeometry x="-870" y="-190" width="100" height="40" as="geometry" />
        </mxCell>
        <mxCell id="ySv0NDXNb3eUwj8sAtVx-44" value="导演" style="ellipse;whiteSpace=wrap;html=1;align=center;" vertex="1" parent="1">
          <mxGeometry x="-1030" y="-190" width="100" height="40" as="geometry" />
        </mxCell>
        <mxCell id="ySv0NDXNb3eUwj8sAtVx-45" value="编剧" style="ellipse;whiteSpace=wrap;html=1;align=center;" vertex="1" parent="1">
          <mxGeometry x="-720" y="-190" width="100" height="40" as="geometry" />
        </mxCell>
        <mxCell id="ySv0NDXNb3eUwj8sAtVx-46" value="演员" style="ellipse;whiteSpace=wrap;html=1;align=center;" vertex="1" parent="1">
          <mxGeometry x="-870" y="-100" width="100" height="40" as="geometry" />
        </mxCell>
        <mxCell id="ySv0NDXNb3eUwj8sAtVx-47" value="" style="endArrow=none;html=1;rounded=0;entryX=0.5;entryY=1;entryDx=0;entryDy=0;exitX=0.5;exitY=0;exitDx=0;exitDy=0;" edge="1" parent="1" source="ySv0NDXNb3eUwj8sAtVx-46" target="ySv0NDXNb3eUwj8sAtVx-43">
          <mxGeometry relative="1" as="geometry">
            <mxPoint x="-810" y="-390" as="sourcePoint" />
            <mxPoint x="-650" y="-390" as="targetPoint" />
          </mxGeometry>
        </mxCell>
        <mxCell id="ySv0NDXNb3eUwj8sAtVx-48" value="" style="endArrow=none;html=1;rounded=0;entryX=0;entryY=0.5;entryDx=0;entryDy=0;exitX=1;exitY=0.5;exitDx=0;exitDy=0;" edge="1" parent="1" source="ySv0NDXNb3eUwj8sAtVx-44" target="ySv0NDXNb3eUwj8sAtVx-43">
          <mxGeometry relative="1" as="geometry">
            <mxPoint x="-1050" y="-430" as="sourcePoint" />
            <mxPoint x="-890" y="-430" as="targetPoint" />
          </mxGeometry>
        </mxCell>
        <mxCell id="ySv0NDXNb3eUwj8sAtVx-49" value="" style="endArrow=none;html=1;rounded=0;entryX=1;entryY=0.5;entryDx=0;entryDy=0;exitX=0;exitY=0.5;exitDx=0;exitDy=0;" edge="1" parent="1" source="ySv0NDXNb3eUwj8sAtVx-45" target="ySv0NDXNb3eUwj8sAtVx-43">
          <mxGeometry relative="1" as="geometry">
            <mxPoint x="-1040" y="-420" as="sourcePoint" />
            <mxPoint x="-880" y="-420" as="targetPoint" />
          </mxGeometry>
        </mxCell>
        <mxCell id="ySv0NDXNb3eUwj8sAtVx-51" value="制作团队" style="shape=rhombus;perimeter=rhombusPerimeter;whiteSpace=wrap;html=1;align=center;" vertex="1" parent="1">
          <mxGeometry x="-880" y="-320" width="120" height="60" as="geometry" />
        </mxCell>
        <mxCell id="ySv0NDXNb3eUwj8sAtVx-52" value="评分" style="shape=rhombus;perimeter=rhombusPerimeter;whiteSpace=wrap;html=1;align=center;" vertex="1" parent="1">
          <mxGeometry x="-700" y="-400" width="120" height="60" as="geometry" />
        </mxCell>
        <mxCell id="ySv0NDXNb3eUwj8sAtVx-54" value="" style="endArrow=none;html=1;rounded=0;exitX=0.934;exitY=1.003;exitDx=0;exitDy=0;exitPerimeter=0;entryX=0.333;entryY=0.167;entryDx=0;entryDy=0;entryPerimeter=0;strokeColor=#000000;" edge="1" parent="1" source="ySv0NDXNb3eUwj8sAtVx-1" target="ySv0NDXNb3eUwj8sAtVx-52">
          <mxGeometry relative="1" as="geometry">
            <mxPoint x="-680" y="-410" as="sourcePoint" />
            <mxPoint x="-520" y="-410" as="targetPoint" />
          </mxGeometry>
        </mxCell>
        <mxCell id="ySv0NDXNb3eUwj8sAtVx-55" value="" style="endArrow=none;html=1;rounded=0;exitX=0.5;exitY=1;exitDx=0;exitDy=0;" edge="1" parent="1" source="ySv0NDXNb3eUwj8sAtVx-1" target="ySv0NDXNb3eUwj8sAtVx-51">
          <mxGeometry relative="1" as="geometry">
            <mxPoint x="-820" y="-350" as="sourcePoint" />
            <mxPoint x="-660" y="-350" as="targetPoint" />
          </mxGeometry>
        </mxCell>
        <mxCell id="ySv0NDXNb3eUwj8sAtVx-56" value="" style="endArrow=none;html=1;rounded=0;exitX=0.5;exitY=1;exitDx=0;exitDy=0;" edge="1" parent="1" source="ySv0NDXNb3eUwj8sAtVx-51">
          <mxGeometry relative="1" as="geometry">
            <mxPoint x="-827" y="-270" as="sourcePoint" />
            <mxPoint x="-820" y="-192" as="targetPoint" />
          </mxGeometry>
        </mxCell>
        <mxCell id="ySv0NDXNb3eUwj8sAtVx-57" value="链接" style="shape=rhombus;perimeter=rhombusPerimeter;whiteSpace=wrap;html=1;align=center;" vertex="1" parent="1">
          <mxGeometry x="-480" y="-510" width="120" height="60" as="geometry" />
        </mxCell>
        <mxCell id="ySv0NDXNb3eUwj8sAtVx-58" value="电影海报" style="ellipse;whiteSpace=wrap;html=1;align=center;" vertex="1" parent="1">
          <mxGeometry x="-330" y="-560" width="100" height="40" as="geometry" />
        </mxCell>
        <mxCell id="ySv0NDXNb3eUwj8sAtVx-59" value="电影背景图" style="ellipse;whiteSpace=wrap;html=1;align=center;" vertex="1" parent="1">
          <mxGeometry x="-320" y="-440" width="100" height="40" as="geometry" />
        </mxCell>
        <mxCell id="ySv0NDXNb3eUwj8sAtVx-60" value="" style="endArrow=none;html=1;rounded=0;exitX=1;exitY=0.5;exitDx=0;exitDy=0;" edge="1" parent="1" source="ySv0NDXNb3eUwj8sAtVx-2" target="ySv0NDXNb3eUwj8sAtVx-57">
          <mxGeometry relative="1" as="geometry">
            <mxPoint x="-510" y="-430" as="sourcePoint" />
            <mxPoint x="-350" y="-430" as="targetPoint" />
          </mxGeometry>
        </mxCell>
        <mxCell id="ySv0NDXNb3eUwj8sAtVx-61" value="" style="endArrow=none;html=1;rounded=0;" edge="1" parent="1" source="ySv0NDXNb3eUwj8sAtVx-3" target="ySv0NDXNb3eUwj8sAtVx-57">
          <mxGeometry relative="1" as="geometry">
            <mxPoint x="-530" y="-440" as="sourcePoint" />
            <mxPoint x="-370" y="-440" as="targetPoint" />
          </mxGeometry>
        </mxCell>
        <mxCell id="ySv0NDXNb3eUwj8sAtVx-63" value="" style="endArrow=none;html=1;rounded=0;exitX=1;exitY=0.5;exitDx=0;exitDy=0;" edge="1" parent="1" source="ySv0NDXNb3eUwj8sAtVx-21" target="ySv0NDXNb3eUwj8sAtVx-57">
          <mxGeometry relative="1" as="geometry">
            <mxPoint x="-570" y="-440" as="sourcePoint" />
            <mxPoint x="-410" y="-440" as="targetPoint" />
          </mxGeometry>
        </mxCell>
        <mxCell id="ySv0NDXNb3eUwj8sAtVx-66" value="" style="endArrow=none;html=1;rounded=0;entryX=0.313;entryY=0.938;entryDx=0;entryDy=0;entryPerimeter=0;exitX=0.833;exitY=0.333;exitDx=0;exitDy=0;exitPerimeter=0;" edge="1" parent="1" source="ySv0NDXNb3eUwj8sAtVx-57" target="ySv0NDXNb3eUwj8sAtVx-58">
          <mxGeometry relative="1" as="geometry">
            <mxPoint x="-380" y="-500" as="sourcePoint" />
            <mxPoint x="-220" y="-500" as="targetPoint" />
          </mxGeometry>
        </mxCell>
        <mxCell id="ySv0NDXNb3eUwj8sAtVx-67" value="" style="endArrow=none;html=1;rounded=0;entryX=-0.018;entryY=0.34;entryDx=0;entryDy=0;entryPerimeter=0;exitX=0.855;exitY=0.683;exitDx=0;exitDy=0;exitPerimeter=0;" edge="1" parent="1" source="ySv0NDXNb3eUwj8sAtVx-57" target="ySv0NDXNb3eUwj8sAtVx-59">
          <mxGeometry relative="1" as="geometry">
            <mxPoint x="-390" y="-450" as="sourcePoint" />
            <mxPoint x="-230" y="-450" as="targetPoint" />
          </mxGeometry>
        </mxCell>
        <mxCell id="ySv0NDXNb3eUwj8sAtVx-70" value="1:N" style="text;html=1;align=center;verticalAlign=middle;resizable=0;points=[];autosize=1;strokeColor=none;fillColor=none;" vertex="1" parent="1">
          <mxGeometry x="-360" y="-470" width="40" height="30" as="geometry" />
        </mxCell>
        <mxCell id="ySv0NDXNb3eUwj8sAtVx-71" value="1:N" style="text;html=1;align=center;verticalAlign=middle;resizable=0;points=[];autosize=1;strokeColor=none;fillColor=none;" vertex="1" parent="1">
          <mxGeometry x="-820" y="-140" width="40" height="30" as="geometry" />
        </mxCell>
        <mxCell id="ySv0NDXNb3eUwj8sAtVx-72" value="1:N" style="text;html=1;align=center;verticalAlign=middle;resizable=0;points=[];autosize=1;strokeColor=none;fillColor=none;" vertex="1" parent="1">
          <mxGeometry x="-920" y="-200" width="40" height="30" as="geometry" />
        </mxCell>
        <mxCell id="ySv0NDXNb3eUwj8sAtVx-73" value="1:N" style="text;html=1;align=center;verticalAlign=middle;resizable=0;points=[];autosize=1;strokeColor=none;fillColor=none;" vertex="1" parent="1">
          <mxGeometry x="-370" y="-530" width="40" height="30" as="geometry" />
        </mxCell>
        <mxCell id="ySv0NDXNb3eUwj8sAtVx-74" value="平均评分" style="ellipse;whiteSpace=wrap;html=1;align=center;" vertex="1" parent="1">
          <mxGeometry x="-530" y="-400" width="100" height="40" as="geometry" />
        </mxCell>
        <mxCell id="ySv0NDXNb3eUwj8sAtVx-75" value="评分人数" style="ellipse;whiteSpace=wrap;html=1;align=center;" vertex="1" parent="1">
          <mxGeometry x="-570" y="-310" width="100" height="40" as="geometry" />
        </mxCell>
        <mxCell id="ySv0NDXNb3eUwj8sAtVx-77" value="" style="endArrow=none;html=1;rounded=0;" edge="1" parent="1" source="ySv0NDXNb3eUwj8sAtVx-75">
          <mxGeometry relative="1" as="geometry">
            <mxPoint x="-750" y="-320" as="sourcePoint" />
            <mxPoint x="-616" y="-350" as="targetPoint" />
          </mxGeometry>
        </mxCell>
        <mxCell id="ySv0NDXNb3eUwj8sAtVx-78" value="" style="endArrow=none;html=1;rounded=0;exitX=1;exitY=0;exitDx=0;exitDy=0;" edge="1" parent="1" source="ySv0NDXNb3eUwj8sAtVx-52" target="ySv0NDXNb3eUwj8sAtVx-74">
          <mxGeometry relative="1" as="geometry">
            <mxPoint x="-410" y="-290" as="sourcePoint" />
            <mxPoint x="-250" y="-290" as="targetPoint" />
          </mxGeometry>
        </mxCell>
        <mxCell id="ySv0NDXNb3eUwj8sAtVx-79" value="评分来源" style="ellipse;whiteSpace=wrap;html=1;align=center;" vertex="1" parent="1">
          <mxGeometry x="-710" y="-290" width="100" height="40" as="geometry" />
        </mxCell>
        <mxCell id="ySv0NDXNb3eUwj8sAtVx-81" value="" style="endArrow=none;html=1;rounded=0;entryX=0.5;entryY=1;entryDx=0;entryDy=0;exitX=0.5;exitY=0;exitDx=0;exitDy=0;" edge="1" parent="1" source="ySv0NDXNb3eUwj8sAtVx-79" target="ySv0NDXNb3eUwj8sAtVx-52">
          <mxGeometry relative="1" as="geometry">
            <mxPoint x="-720" y="-320" as="sourcePoint" />
            <mxPoint x="-560" y="-320" as="targetPoint" />
          </mxGeometry>
        </mxCell>
        <mxCell id="ySv0NDXNb3eUwj8sAtVx-82" value="1:1" style="text;html=1;align=center;verticalAlign=middle;resizable=0;points=[];autosize=1;strokeColor=none;fillColor=none;" vertex="1" parent="1">
          <mxGeometry x="-590" y="-412" width="40" height="30" as="geometry" />
        </mxCell>
        <mxCell id="ySv0NDXNb3eUwj8sAtVx-83" value="1:1" style="text;html=1;align=center;verticalAlign=middle;resizable=0;points=[];autosize=1;strokeColor=none;fillColor=none;" vertex="1" parent="1">
          <mxGeometry x="-650" y="-320" width="40" height="30" as="geometry" />
        </mxCell>
        <mxCell id="ySv0NDXNb3eUwj8sAtVx-84" value="1:1" style="text;html=1;align=center;verticalAlign=middle;resizable=0;points=[];autosize=1;strokeColor=none;fillColor=none;" vertex="1" parent="1">
          <mxGeometry x="-580" y="-350" width="40" height="30" as="geometry" />
        </mxCell>
        <mxCell id="ySv0NDXNb3eUwj8sAtVx-85" value="1:1" style="text;html=1;align=center;verticalAlign=middle;resizable=0;points=[];autosize=1;strokeColor=none;fillColor=none;" vertex="1" parent="1">
          <mxGeometry x="-830" y="-360" width="40" height="30" as="geometry" />
        </mxCell>
        <mxCell id="ySv0NDXNb3eUwj8sAtVx-86" value="1:N" style="text;html=1;align=center;verticalAlign=middle;resizable=0;points=[];autosize=1;strokeColor=none;fillColor=none;" vertex="1" parent="1">
          <mxGeometry x="-760" y="-200" width="40" height="30" as="geometry" />
        </mxCell>
      </root>
    </mxGraphModel>
  </diagram>
</mxfile>
